<?plantuml 1.2026.1?><svg xmlns="http://www.w3.org/2000/svg" xmlns:xlink="http://www.w3.org/1999/xlink" contentStyleType="text/css" data-diagram-type="DESCRIPTION" height="866px" preserveAspectRatio="none" style="width:596px;height:866px;background:#FFFFFF;" version="1.1" viewBox="0 0 596 866" width="596px" zoomAndPan="magnify"><title>UC-D01 &#8212; Use Case: &#273;i&#7873;u tra v&#224; ph&#7889;i h&#7907;p t&#224;i x&#7871;</title><defs/><g><g class="title" data-source-line="3"><text fill="#0F172A" font-family="Arial" font-size="20" font-weight="bold" lengthAdjust="spacing" textLength="454.3359" x="67.332" y="28.7598">UC-D01 &#8212; Use Case: &#273;i&#7873;u tra v&#224; ph&#7889;i h&#7907;p t&#224;i x&#7871;</text></g><!--cluster H? th?ng ?i?u tra gian l?n ? nghi?p v? c?t l?i--><g class="cluster" data-qualified-name="H. th.ng .i.u tra gian l.n . nghi.p v. c.t l.i" data-source-line="10" id="ent0008"><rect fill="none" height="674" rx="4" ry="4" style="stroke:#181818;stroke-width:1;" width="320" x="270" y="181.498"/><text fill="#000000" font-family="Arial" font-size="14" font-weight="bold" lengthAdjust="spacing" textLength="304.8965" x="277.5518" y="196.6299">H&#7879; th&#7889;ng &#273;i&#7873;u tra gian l&#7853;n &#8212; nghi&#7879;p v&#7909; c&#7889;t l&#245;i</text></g><!--entity Driver--><g class="entity" data-qualified-name="Driver" data-source-line="4" id="ent0002"><ellipse cx="58.562" cy="337.998" fill="#F1F1F1" rx="8" ry="8" style="stroke:#181818;stroke-width:0.5;"/><path d="M58.562,345.998 L58.562,372.998 M45.562,353.998 L71.562,353.998 M58.562,372.998 L45.562,387.998 M58.562,372.998 L71.562,387.998" fill="none" style="stroke:#181818;stroke-width:0.5;"/><text fill="#000000" font-family="Arial" font-size="14" lengthAdjust="spacing" textLength="38.124" x="39.5" y="402.6299">T&#224;i x&#7871;</text></g><!--entity Reviewer--><g class="entity" data-qualified-name="Reviewer" data-source-line="5" id="ent0003"><ellipse cx="58.4102" cy="541.998" fill="#F1F1F1" rx="8" ry="8" style="stroke:#181818;stroke-width:0.5;"/><path d="M58.4102,549.998 L58.4102,576.998 M45.4102,557.998 L71.4102,557.998 M58.4102,576.998 L45.4102,591.998 M58.4102,576.998 L71.4102,591.998" fill="none" style="stroke:#181818;stroke-width:0.5;"/><text fill="#000000" font-family="Arial" font-size="14" lengthAdjust="spacing" textLength="91.8203" x="12.5" y="606.6299">Ki&#7875;m so&#225;t vi&#234;n</text></g><!--entity Source--><g class="entity" data-qualified-name="Source" data-source-line="6" id="ent0004"><ellipse cx="58.4175" cy="776.998" fill="#F1F1F1" rx="8" ry="8" style="stroke:#181818;stroke-width:0.5;"/><path d="M58.4175,784.998 L58.4175,811.998 M45.4175,792.998 L71.4175,792.998 M58.4175,811.998 L45.4175,826.998 M58.4175,811.998 L71.4175,826.998" fill="none" style="stroke:#181818;stroke-width:0.5;"/><text fill="#000000" font-family="Arial" font-size="14" lengthAdjust="spacing" textLength="87.9854" x="14.4248" y="841.6299">Ngu&#7891;n d&#7919; li&#7879;u</text><text fill="#000000" font-family="Arial" font-size="14" lengthAdjust="spacing" textLength="101.835" x="7.5" y="857.7285">&#273;&#432;&#7907;c c&#7845;p quy&#7873;n</text></g><!--entity Approver--><g class="entity" data-qualified-name="Approver" data-source-line="7" id="ent0005"><ellipse cx="58.3486" cy="431.998" fill="#F1F1F1" rx="8" ry="8" style="stroke:#181818;stroke-width:0.5;"/><path d="M58.3486,439.998 L58.3486,466.998 M45.3486,447.998 L71.3486,447.998 M58.3486,466.998 L45.3486,481.998 M58.3486,466.998 L71.3486,481.998" fill="none" style="stroke:#181818;stroke-width:0.5;"/><text fill="#000000" font-family="Arial" font-size="14" lengthAdjust="spacing" textLength="77.6973" x="19.5" y="496.6299">Ng&#432;&#7901;i duy&#7879;t</text><text fill="#000000" font-family="Arial" font-size="14" lengthAdjust="spacing" textLength="45.1445" x="35.7764" y="512.7285">&#273;&#7897;c l&#7853;p</text></g><!--entity AppealReviewer--><g class="entity" data-qualified-name="AppealReviewer" data-source-line="8" id="ent0006"><ellipse cx="58.5376" cy="203.998" fill="#F1F1F1" rx="8" ry="8" style="stroke:#181818;stroke-width:0.5;"/><path d="M58.5376,211.998 L58.5376,238.998 M45.5376,219.998 L71.5376,219.998 M58.5376,238.998 L45.5376,253.998 M58.5376,238.998 L71.5376,253.998" fill="none" style="stroke:#181818;stroke-width:0.5;"/><text fill="#000000" font-family="Arial" font-size="14" lengthAdjust="spacing" textLength="73.8213" x="21.627" y="268.6299">Ng&#432;&#7901;i x&#7917; l&#253;</text><text fill="#000000" font-family="Arial" font-size="14" lengthAdjust="spacing" textLength="105.0752" x="6" y="284.7285">khi&#7871;u n&#7841;i &#273;&#7897;c l&#7853;p</text></g><!--entity Support--><g class="entity" data-qualified-name="Support" data-source-line="9" id="ent0007"><ellipse cx="58.4351" cy="635.998" fill="#F1F1F1" rx="8" ry="8" style="stroke:#181818;stroke-width:0.5;"/><path d="M58.4351,643.998 L58.4351,670.998 M45.4351,651.998 L71.4351,651.998 M58.4351,670.998 L45.4351,685.998 M58.4351,670.998 L71.4351,685.998" fill="none" style="stroke:#181818;stroke-width:0.5;"/><text fill="#000000" font-family="Arial" font-size="14" lengthAdjust="spacing" textLength="76.8701" x="20" y="700.6299">H&#7895; tr&#7907; t&#224;i x&#7871;</text><text fill="#000000" font-family="Arial" font-size="14" lengthAdjust="spacing" textLength="75.4961" x="20.687" y="716.7285">c&#243; &#7911;y quy&#7873;n</text></g><g class="entity" data-qualified-name="GMN30" data-source-line="34" id="ent0031"><path d="M309,125.998 L309,132.9806 L349.7795,491.7054 L309,140.9806 L309,169.3945 A4,4 0 0 0 313,173.3945 L546.8691,173.3945 A4,4 0 0 0 550.8691,169.3945 L550.8691,131.998 L540.8691,121.998 L313,121.998 A4,4 0 0 0 309,125.998" fill="#F8FAFC" style="stroke:#CBD5E1;stroke-width:0.5;"/><path d="M540.8691,121.998 L540.8691,129.998 A2,2 0 0 0 542.8691,131.998 L550.8691,131.998 L540.8691,121.998" fill="#F8FAFC" style="stroke:#CBD5E1;stroke-width:0.5;"/><text fill="#000000" font-family="Arial" font-size="12" lengthAdjust="spacing" textLength="163.3594" x="343.7549" y="138.2539">Ng&#432;&#7901;i &#273;&#7873; xu&#7845;t kh&#244;ng t&#7921; duy&#7879;t.</text><text fill="#000000" font-family="Arial" font-size="12" lengthAdjust="spacing" textLength="174.7793" x="338.0449" y="152.0527">X&#225;c nh&#7853;n gian l&#7853;n c&#7847;n RULE-08.</text><text fill="#000000" font-family="Arial" font-size="12" lengthAdjust="spacing" textLength="220.8691" x="315" y="165.8516">K&#7871;t lu&#7853;n kh&#244;ng t&#7921; kh&#243;a t&#224;i kho&#7843;n/tr&#7915; ti&#7873;n.</text></g><g class="entity" data-qualified-name="GMN33" data-source-line="39" id="ent0034"><path d="M306,56.998 L306,66.4217 L379.4856,235.2475 L306,74.4217 L306,100.3945 A4,4 0 0 0 310,104.3945 L549.6934,104.3945 A4,4 0 0 0 553.6934,100.3945 L553.6934,62.998 L543.6934,52.998 L310,52.998 A4,4 0 0 0 306,56.998" fill="#F8FAFC" style="stroke:#CBD5E1;stroke-width:0.5;"/><path d="M543.6934,52.998 L543.6934,60.998 A2,2 0 0 0 545.6934,62.998 L553.6934,62.998 L543.6934,52.998" fill="#F8FAFC" style="stroke:#CBD5E1;stroke-width:0.5;"/><text fill="#000000" font-family="Arial" font-size="12" lengthAdjust="spacing" textLength="212.6895" x="319.002" y="69.2539">Khi&#7871;u n&#7841;i l&#224; m&#7897;t t&#432;&#417;ng t&#225;c sau k&#7871;t lu&#7853;n,</text><text fill="#000000" font-family="Arial" font-size="12" lengthAdjust="spacing" textLength="226.6934" x="312" y="83.0527">kh&#244;ng ph&#7843;i b&#432;&#7899;c b&#7855;t bu&#7897;c c&#7911;a m&#7885;i UC-06.</text><text fill="#000000" font-family="Arial" font-size="12" lengthAdjust="spacing" textLength="223.3828" x="313.6553" y="96.8516">Gi&#7919; l&#7883;ch s&#7917; quy&#7871;t &#273;&#7883;nh, ghi phi&#234;n b&#7843;n m&#7899;i.</text></g><!--entity U1--><g class="entity" data-qualified-name="H. th.ng .i.u tra gian l.n . nghi.p v. c.t l.i.U1" data-source-line="11" id="ent0009"><ellipse cx="430.1327" cy="814.3005" fill="#EFF6FF" rx="69.1327" ry="32.3025" style="stroke:#64748B;stroke-width:0.5;"/><text fill="#000000" font-family="Arial" font-size="14" lengthAdjust="spacing" textLength="40.4551" x="409.9052" y="799.001">UC-01</text><text fill="#000000" font-family="Arial" font-size="14" lengthAdjust="spacing" textLength="108.999" x="375.6332" y="815.0996">Ti&#7871;p nh&#7853;n d&#7919; li&#7879;u</text><text fill="#000000" font-family="Arial" font-size="14" lengthAdjust="spacing" textLength="94.958" x="382.6537" y="831.1982">v&#224; t&#7841;o nghi v&#7845;n</text></g><!--entity U2--><g class="entity" data-qualified-name="H. th.ng .i.u tra gian l.n . nghi.p v. c.t l.i.U2" data-source-line="12" id="ent0010"><ellipse cx="429.8" cy="568.523" fill="#EFF6FF" rx="50.8" ry="31.525" style="stroke:#64748B;stroke-width:0.5;"/><text fill="#000000" font-family="Arial" font-size="14" lengthAdjust="spacing" textLength="40.4551" x="409.5725" y="555.2766">UC-02</text><text fill="#000000" font-family="Arial" font-size="14" lengthAdjust="spacing" textLength="80.9307" x="389.3347" y="571.3752">Nh&#7853;n vi&#7879;c v&#224;</text><text fill="#000000" font-family="Arial" font-size="14" lengthAdjust="spacing" textLength="58.9736" x="400.3132" y="587.4739">t&#236;m h&#7891; s&#417;</text></g><!--entity U3--><g class="entity" data-qualified-name="H. th.ng .i.u tra gian l.n . nghi.p v. c.t l.i.U3" data-source-line="13" id="ent0011"><ellipse cx="430.0739" cy="734.6105" fill="#EFF6FF" rx="75.0739" ry="29.6124" style="stroke:#64748B;stroke-width:0.5;"/><text fill="#000000" font-family="Arial" font-size="14" lengthAdjust="spacing" textLength="40.4551" x="409.8464" y="721.6662">UC-03</text><text fill="#000000" font-family="Arial" font-size="14" lengthAdjust="spacing" textLength="130.7988" x="364.6745" y="737.7649">D&#7921;ng v&#224; ki&#7875;m ch&#7913;ng</text><text fill="#000000" font-family="Arial" font-size="14" lengthAdjust="spacing" textLength="74.7646" x="392.6916" y="753.8635">b&#7857;ng ch&#7913;ng</text></g><!--entity U4--><g class="entity" data-qualified-name="H. th.ng .i.u tra gian l.n . nghi.p v. c.t l.i.U4" data-source-line="14" id="ent0012"><ellipse cx="430.0973" cy="404.4515" fill="#EFF6FF" rx="51.5973" ry="29.4535" style="stroke:#64748B;stroke-width:0.5;"/><text fill="#000000" font-family="Arial" font-size="14" lengthAdjust="spacing" textLength="40.4551" x="409.8697" y="392.9971">UC-04</text><text fill="#000000" font-family="Arial" font-size="14" lengthAdjust="spacing" textLength="88.7236" x="385.7355" y="409.0957">Y&#234;u c&#7847;u t&#224;i x&#7871;</text><text fill="#000000" font-family="Arial" font-size="14" lengthAdjust="spacing" textLength="38.8965" x="410.649" y="425.1943">l&#224;m r&#245;</text></g><!--entity U5--><g class="entity" data-qualified-name="H. th.ng .i.u tra gian l.n . nghi.p v. c.t l.i.U5" data-source-line="15" id="ent0013"><ellipse cx="430.1901" cy="652.3642" fill="#EFF6FF" rx="63.1901" ry="33.8662" style="stroke:#64748B;stroke-width:0.5;"/><text fill="#000000" font-family="Arial" font-size="14" lengthAdjust="spacing" textLength="40.4551" x="409.9626" y="635.8918">UC-05</text><text fill="#000000" font-family="Arial" font-size="14" lengthAdjust="spacing" textLength="75.4756" x="392.4523" y="651.9905">Gi&#7843;i tr&#236;nh v&#224;</text><text fill="#000000" font-family="Arial" font-size="14" lengthAdjust="spacing" textLength="94.1787" x="383.1008" y="668.0891">b&#7893; sung t&#224;i li&#7879;u</text></g><!--entity U6--><g class="entity" data-qualified-name="H. th.ng .i.u tra gian l.n . nghi.p v. c.t l.i.U6" data-source-line="16" id="ent0014"><ellipse cx="429.9102" cy="485.5898" fill="#EFF6FF" rx="79.9102" ry="33.5917" style="stroke:#64748B;stroke-width:0.5;"/><text fill="#000000" font-family="Arial" font-size="14" lengthAdjust="spacing" textLength="40.4551" x="409.6826" y="468.6737">UC-06</text><text fill="#000000" font-family="Arial" font-size="14" lengthAdjust="spacing" textLength="90.2754" x="384.7725" y="484.7723">&#272;&#7873; xu&#7845;t, duy&#7879;t</text><text fill="#000000" font-family="Arial" font-size="14" lengthAdjust="spacing" textLength="121.4199" x="369.2002" y="500.8709">v&#224; c&#244;ng b&#7889; k&#7871;t lu&#7853;n</text></g><!--entity U7--><g class="entity" data-qualified-name="H. th.ng .i.u tra gian l.n . nghi.p v. c.t l.i.U7" data-source-line="17" id="ent0015"><ellipse cx="430.1423" cy="241.359" fill="#EFF6FF" rx="50.6423" ry="32.8609" style="stroke:#64748B;stroke-width:0.5;"/><text fill="#000000" font-family="Arial" font-size="14" lengthAdjust="spacing" textLength="40.4551" x="409.9147" y="226.9217">UC-07</text><text fill="#000000" font-family="Arial" font-size="14" lengthAdjust="spacing" textLength="77.0547" x="391.6149" y="243.0203">Khi&#7871;u n&#7841;i v&#224;</text><text fill="#000000" font-family="Arial" font-size="14" lengthAdjust="spacing" textLength="66.9102" x="396.6872" y="259.119">xem x&#233;t l&#7841;i</text></g><!--entity U10--><g class="entity" data-qualified-name="H. th.ng .i.u tra gian l.n . nghi.p v. c.t l.i.U10" data-source-line="18" id="ent0016"><ellipse cx="429.9142" cy="324.4938" fill="#EFF6FF" rx="61.4142" ry="31.9957" style="stroke:#64748B;stroke-width:0.5;"/><text fill="#000000" font-family="Arial" font-size="14" lengthAdjust="spacing" textLength="40.4551" x="409.6866" y="309.8906">UC-10</text><text fill="#000000" font-family="Arial" font-size="14" lengthAdjust="spacing" textLength="97.2959" x="381.2662" y="325.9892">B&#225;o v&#7845;n &#273;&#7873; c&#7911;a</text><text fill="#000000" font-family="Arial" font-size="14" lengthAdjust="spacing" textLength="80.1582" x="389.8351" y="342.0879">chuy&#7871;n m&#236;nh</text></g><g class="link" data-entity-1="ent0004" data-entity-2="ent0009" data-link-type="association" id="lnk17"><path d="M109.717,814.498 C174.6354,814.498 287.9576,814.498 360.6719,814.498" fill="none" style="stroke:#475569;stroke-width:1;"/></g><g class="link" data-entity-1="ent0003" data-entity-2="ent0010" data-link-type="association" id="lnk18"><path d="M104.808,571.1302 C174.2796,570.5661 306.6422,569.4915 378.8913,568.9049" fill="none" style="stroke:#475569;stroke-width:1;"/></g><g class="link" data-entity-1="ent0003" data-entity-2="ent0011" data-link-type="association" id="lnk19"><path d="M104.4166,609.5943 C106.7983,612.4769 109.0209,615.4534 111,618.498 C124.7878,639.7088 110.0882,655.695 129,672.498 C190.7243,727.3397 287.9165,738.4665 354.8573,738.7304" fill="none" style="stroke:#475569;stroke-width:1;"/></g><g class="link" data-entity-1="ent0003" data-entity-2="ent0012" data-link-type="association" id="lnk20"><path d="M104.5246,534.3269 C106.9477,531.1824 109.1442,527.898 111,524.498 C133.8941,482.5538 93.2202,450.1724 129,418.498 C164.7218,386.875 302.6731,393.309 378.4437,399.5498" fill="none" style="stroke:#475569;stroke-width:1;"/></g><g class="link" data-entity-1="ent0003" data-entity-2="ent0014" data-link-type="association" id="lnk21"><path d="M104.808,560.9528 C165.8004,546.7569 275.2687,521.2785 349.9739,503.8911" fill="none" style="stroke:#475569;stroke-width:1;"/></g><g class="link" data-entity-1="ent0002" data-entity-2="ent0012" data-link-type="association" id="lnk22"><path d="M77.5719,369.3077 C131.8337,374.7412 294.7348,391.0534 378.317,399.4229" fill="none" style="stroke:#475569;stroke-width:1;"/><text fill="#334155" font-family="Arial" font-size="14" lengthAdjust="spacing" textLength="31.1445" x="148.5" y="370.6299">nh&#7853;n</text><text fill="#334155" font-family="Arial" font-size="14" lengthAdjust="spacing" textLength="3.8896" x="179.6445" y="370.6299">&#160;</text><text fill="#334155" font-family="Arial" font-size="14" lengthAdjust="spacing" textLength="22.5723" x="183.5342" y="370.6299">y&#234;u</text><text fill="#334155" font-family="Arial" font-size="14" lengthAdjust="spacing" textLength="3.8896" x="206.1064" y="370.6299">&#160;</text><text fill="#334155" font-family="Arial" font-size="14" lengthAdjust="spacing" textLength="22.5723" x="209.9961" y="370.6299">c&#7847;u</text></g><g class="link" data-entity-1="ent0002" data-entity-2="ent0013" data-link-type="association" id="lnk23"><path d="M77.9372,381.1862 C88.6318,389.8338 101.768,401.7547 111,414.498 C122.4372,430.2854 118.3083,438.1966 129,454.498 C180.0748,532.3707 190.528,560.9491 270,609.498 C299.2832,627.387 336.0499,637.9533 366.85,644.1312" fill="none" style="stroke:#475569;stroke-width:1;"/></g><g class="link" data-entity-1="ent0002" data-entity-2="ent0014" data-link-type="association" id="lnk24"><path d="M77.5293,380.8224 C91.0853,390.288 110.4388,402.661 129,410.498 C200.9619,440.8823 288.0331,460.9556 349.7925,472.6236" fill="none" style="stroke:#475569;stroke-width:1;"/><text fill="#334155" font-family="Arial" font-size="14" lengthAdjust="spacing" textLength="31.1445" x="150.5" y="405.6299">nh&#7853;n</text><text fill="#334155" font-family="Arial" font-size="14" lengthAdjust="spacing" textLength="3.8896" x="181.6445" y="405.6299">&#160;</text><text fill="#334155" font-family="Arial" font-size="14" lengthAdjust="spacing" textLength="18.6758" x="185.5342" y="405.6299">k&#7871;t</text><text fill="#334155" font-family="Arial" font-size="14" lengthAdjust="spacing" textLength="3.8896" x="204.21" y="405.6299">&#160;</text><text fill="#334155" font-family="Arial" font-size="14" lengthAdjust="spacing" textLength="23.3584" x="208.0996" y="405.6299">qu&#7843;</text></g><g class="link" data-entity-1="ent0002" data-entity-2="ent0015" data-link-type="association" id="lnk25"><path d="M77.6704,356.7421 C91.4569,348.85 111.0379,338.2086 129,330.498 C214.1166,293.9602 318.9283,266.6136 379.4448,252.4225" fill="none" style="stroke:#475569;stroke-width:1;"/></g><g class="link" data-entity-1="ent0002" data-entity-2="ent0016" data-link-type="association" id="lnk26"><path d="M77.6578,362.6013 C91.6033,359.0155 111.3926,354.3037 129,351.498 C211.3695,338.3729 307.5551,331.1219 368.3659,327.5203" fill="none" style="stroke:#475569;stroke-width:1;"/></g><g class="link" data-entity-1="ent0005" data-entity-2="ent0014" data-link-type="association" id="lnk27"><path d="M97.6513,471.1501 C156.8398,473.713 272.0548,478.702 349.779,482.0676" fill="none" style="stroke:#475569;stroke-width:1;"/></g><g class="link" data-entity-1="ent0006" data-entity-2="ent0015" data-link-type="association" id="lnk28"><path d="M111.2665,241.498 C182.3711,241.498 309.3825,241.498 379.3549,241.498" fill="none" style="stroke:#475569;stroke-width:1;"/></g><g class="link" data-entity-1="ent0007" data-entity-2="ent0013" data-link-type="association" id="lnk29"><path d="M97.3065,671.3494 C160.855,667.7377 289.6782,660.4162 366.7433,656.0363" fill="none" style="stroke:#475569;stroke-width:1;"/><text fill="#334155" font-family="Arial" font-size="14" lengthAdjust="spacing" textLength="20.2686" x="131" y="657.6299">g&#7917;i</text><text fill="#334155" font-family="Arial" font-size="14" lengthAdjust="spacing" textLength="3.8896" x="151.2686" y="657.6299">&#160;</text><text fill="#334155" font-family="Arial" font-size="14" lengthAdjust="spacing" textLength="15.5723" x="155.1582" y="657.6299">h&#7897;</text><text fill="#334155" font-family="Arial" font-size="14" lengthAdjust="spacing" textLength="3.8896" x="170.7305" y="657.6299">&#160;</text><text fill="#334155" font-family="Arial" font-size="14" lengthAdjust="spacing" textLength="15.5723" x="174.6201" y="657.6299">&#273;&#227;</text><text fill="#334155" font-family="Arial" font-size="14" lengthAdjust="spacing" textLength="3.8896" x="190.1924" y="657.6299">&#160;</text><text fill="#334155" font-family="Arial" font-size="14" lengthAdjust="spacing" textLength="21.7861" x="194.082" y="657.6299">x&#225;c</text><text fill="#334155" font-family="Arial" font-size="14" lengthAdjust="spacing" textLength="3.8896" x="215.8682" y="657.6299">&#160;</text><text fill="#334155" font-family="Arial" font-size="14" lengthAdjust="spacing" textLength="30.3447" x="219.7578" y="657.6299">minh</text></g></g></svg>